PathFileType	4	(X/Y/Z)	C:\Users\Basilio\Documents\Thesis Gigler\squatting_fais\c3dfiles\047\SLS_pre_back2\markers_experimental.trc
DataRate	CameraRate	NumFrames	NumMarkers	Units	OrigDataRate	OrigDataStartFrame	OrigNumFrames
200.000000	200.000000	4	62	mm	200.000000	971	1295
Frame#	Time	FHD			LBHD			RBHD			C7			T10			CLAV			LSHO			LUUPA			LMUPA			LDUPA			LLEP			LMEP			LRAD			LUL			LRFIN			RSHO			RUPA1			RMUPA			RDUPA			RLEP			RMEP			RUL			RUFIN			LASI			RASI			USACR			LSACR			RSACR			LTHI1			LTHI2			LTHI3			LTHI4			LLFC			LMFC			LTIB1			LTIB2			LTIB3			LTIB4			LLMAL			LMMAL			LMT1			LMT2			LMT5			RTHI			RTHI2			RTHI3			RTHI4			RLFC			RMFC			RTIB1			RTIB2			RTIB3			RTIB4			RLMAL			RHEE			RMT1			RMT2			RMT5			RMMAL			RRAD			*60			*61			
		X1	Y1	Z1	X2	Y2	Z2	X3	Y3	Z3	X4	Y4	Z4	X5	Y5	Z5	X6	Y6	Z6	X7	Y7	Z7	X8	Y8	Z8	X9	Y9	Z9	X10	Y10	Z10	X11	Y11	Z11	X12	Y12	Z12	X13	Y13	Z13	X14	Y14	Z14	X15	Y15	Z15	X16	Y16	Z16	X17	Y17	Z17	X18	Y18	Z18	X19	Y19	Z19	X20	Y20	Z20	X21	Y21	Z21	X22	Y22	Z22	X23	Y23	Z23	X24	Y24	Z24	X25	Y25	Z25	X26	Y26	Z26	X27	Y27	Z27	X28	Y28	Z28	X29	Y29	Z29	X30	Y30	Z30	X31	Y31	Z31	X32	Y32	Z32	X33	Y33	Z33	X34	Y34	Z34	X35	Y35	Z35	X36	Y36	Z36	X37	Y37	Z37	X38	Y38	Z38	X39	Y39	Z39	X40	Y40	Z40	X41	Y41	Z41	X42	Y42	Z42	X43	Y43	Z43	X44	Y44	Z44	X45	Y45	Z45	X46	Y46	Z46	X47	Y47	Z47	X48	Y48	Z48	X49	Y49	Z49	X50	Y50	Z50	X51	Y51	Z51	X52	Y52	Z52	X53	Y53	Z53	X54	Y54	Z54	X55	Y55	Z55	X56	Y56	Z56	X57	Y57	Z57	X58	Y58	Z58	X59	Y59	Z59	X60	Y60	Z60	X61	Y61	Z61	X62	Y62	Z62	

972	4.855	-35.90824508666993	1633.024780273438	-1073.2294921875	-213.0425567626954	1578.892456054688	-1086.289916992188	-172.8298034667969	1569.702392578125	-943.2026367187502	-220.7837829589844	1420.561157226563	-1035.425170898438	-329.1177062988282	1140.013549804688	-1020.685974121094	-86.94387054443361	1337.800048828125	-1070.109375	-155.786605834961	1373.350463867188	-1220.607299804688	-105.7829360961914	1236.727783203125	-1334.239868164063	-59.73093032836915	1259.469970703125	-1331.222534179688	-44.95109558105469	1204.548095703125	-1349.567260742188	27.40303611755372	1189.36328125	-1355.845458984375	13.28250789642334	1129.787719726563	-1287.466186523438	182.6803131103516	1281.3125	-1174.36474609375	228.0285339355469	1218.979248046875	-1177.746337890625	267.4431457519532	1303.788940429688	-1164.503662109375	-107.8457946777344	1369.995971679688	-908.4949951171877	-20.28427505493164	1227.19384765625	-817.2518310546877	18.33659744262696	1247.291259765625	-838.740173339844	40.53518295288087	1193.191650390625	-825.128112792969	112.4431762695313	1178.378173828125	-846.138854980469	81.36964416503908	1114.489013671875	-901.891296386719	268.7789001464844	1233.061645507813	-1049.36328125	231.9355773925782	1311.877685546875	-1080.237670898438	-242.9725341796876	872.2800903320315	-1102.270751953125	-237.1203918457032	890.5588989257815	-877.721374511719	-385.3868103027345	1018.336303710938	-1003.477294921875	-403.059295654297	990.0336914062502	-1029.27392578125	-398.3122863769532	993.6577758789065	-970.9551391601565	-298.6927795410157	745.5250244140626	-1180.918212890625	-233.4922485351563	691.7536010742189	-1180.576049804688	-191.9457550048828	714.3524169921876	-1167.067993164063	-235.5077362060547	630.7369995117189	-1180.152587890625	-182.8638305664063	474.6643371582032	-1143.763427734375	-148.9840240478516	479.2894592285157	-1022.895935058594	-202.8274688720704	310.3029479980469	-1028.803100585938	-223.4364318847657	259.3468627929688	-1095.372192382813	-211.9465637207032	257.9752502441407	-1050.925170898438	-259.2730407714844	198.8128051757813	-1014.80224609375	-340.6539306640626	124.084716796875	-1058.577026367188	-322.3348999023438	139.8414611816407	-968.8982543945315	-211.7848358154297	60.24097824096681	-987.386657714844	-210.1745910644532	61.84293746948244	-1032.418090820313	-257.4344787597657	54.15359115600587	-1075.950805664063	-335.8826904296876	737.0165405273439	-775.3159790039065	-297.2872619628907	682.6688232421876	-769.3005981445315	-267.1410217285157	681.4572143554689	-781.4873657226565	-324.7596740722657	603.2960815429689	-761.6537475585939	-326.9511718750001	471.0596313476564	-773.3704833984377	-325.3800659179688	439.7769165039064	-901.189147949219	-428.514129638672	401.770233154297	-778.8933105468752	-515.8859863281251	463.6303100585939	-749.3057861328126	-510.7383422851564	416.8824462890626	-754.5892944335939	-558.9764404296876	396.3923950195314	-783.6362304687502	-715.3753051757814	450.6128540039064	-759.0426025390626	-737.0350341796876	499.2578125000001	-822.5170898437502	-783.241882324219	294.4914550781251	-812.4238281250002	-783.5169067382815	295.0180969238282	-762.3473510742189	-809.2357177734377	354.2223815917969	-723.9870605468751	-698.1028442382814	407.7168273925782	-839.7421875000002	nan	nan	nan	nan	nan	nan	nan	nan	nan	
973	4.86	-37.10625457763673	1635.16650390625	-1073.320922851563	-214.2015075683594	1580.842407226563	-1086.236206054688	-174.3038635253907	1571.728149414063	-942.9788208007815	-221.9522247314454	1422.651123046875	-1035.369018554688	-329.2808532714844	1141.166137695313	-1020.9208984375	-87.5994110107422	1339.964233398438	-1069.981323242188	-156.9203033447266	1375.304565429688	-1220.6005859375	-106.1848983764649	1239.054443359375	-1334.402954101563	-59.92675781250001	1261.711669921875	-1331.1083984375	-45.14794540405274	1207.012939453125	-1349.676879882813	27.21906471252442	1192.037475585938	-1355.966674804688	13.37494277954102	1132.2880859375	-1288.217163085938	182.0606536865235	1284.166259765625	-1174.276245117188	227.7900848388672	1221.712036132813	-1177.643188476563	267.3107299804688	1307.15673828125	-1164.523559570313	-108.9090652465821	1371.8408203125	-908.4738769531252	-21.12615585327149	1229.28857421875	-818.7138671875002	17.65957832336426	1249.555419921875	-838.708190917969	39.94497299194337	1195.469970703125	-824.9121093750002	111.9770889282227	1180.89208984375	-846.3919677734377	80.77845764160158	1116.942993164063	-901.9995727539065	268.4950256347657	1235.967163085938	-1049.436401367188	231.3220977783204	1314.627807617188	-1080.0869140625	-242.5138092041016	873.9534301757815	-1102.339965820313	-236.811752319336	891.993835449219	-877.7796630859377	-385.3021545410157	1019.954650878906	-1003.657531738281	-402.7182006835939	991.3831787109377	-1029.448120117188	-397.9072570800782	994.7451171875002	-971.1780395507815	-298.4249877929688	746.4089355468751	-1180.902587890625	-233.3579101562501	692.3838500976564	-1180.549438476563	-190.5267181396485	715.6403198242189	-1167.961791992188	-235.161117553711	631.7273559570314	-1180.326049804688	-183.4853668212891	475.0909118652345	-1143.751098632813	-149.5695190429688	479.6693420410157	-1022.865539550781	-203.4669952392579	310.7135620117188	-1028.794799804688	-224.090805053711	259.6634826660157	-1095.359497070313	-212.6419677734376	258.1114501953126	-1051.0146484375	-259.5276794433594	198.9971008300782	-1014.865234375	-340.6990356445313	124.0581207275391	-1058.620727539063	-322.4180603027344	139.7748413085938	-968.8975830078127	-209.5194702148438	61.45774841308595	-988.217224121094	-208.3906555175782	63.44665527343751	-1032.853515625	-257.4465026855469	54.0893020629883	-1075.97119140625	-334.9582519531251	738.5133056640626	-775.491882324219	-296.1949462890626	684.0791015625001	-769.8415527343752	-266.1287841796876	682.8595581054689	-781.5401000976565	-323.7147216796876	604.3592529296876	-761.5612182617189	-325.4436645507813	472.4130859375001	-773.4688110351565	-324.0467834472657	441.023406982422	-901.1230468750002	-427.0859375000001	402.8198547363282	-779.1649169921877	-514.4598999023439	464.4407043457032	-749.2724609375001	-509.2291870117189	417.7784118652345	-754.5825805664064	-557.5089111328126	397.2157592773439	-784.1712646484377	-713.8371582031251	451.1366577148439	-759.0625610351564	-735.8607788085939	499.541961669922	-822.4329223632815	-781.173522949219	295.5438232421876	-812.6629638671877	-781.229675292969	295.6646118164063	-762.4358520507814	-807.8218383789065	354.8195190429688	-723.7587890625001	-696.5716552734376	408.752899169922	-840.028259277344	nan	nan	nan	nan	nan	nan	nan	nan	nan	
974	4.865	-38.47503662109376	1636.62548828125	-1073.262084960938	-215.2582244873047	1582.557983398438	-1086.348388671875	-175.6283264160157	1573.510498046875	-942.7488403320315	-222.9241638183594	1424.01904296875	-1035.590698242188	-329.5036621093751	1142.453125	-1021.030639648438	-88.53517150878908	1342.02099609375	-1070.1318359375	-157.8445892333985	1377.212280273438	-1220.7939453125	-106.5033569335938	1241.11376953125	-1334.586181640625	-60.39223861694337	1264.2685546875	-1331.44873046875	-45.60041046142579	1209.465454101563	-1349.639282226563	27.11367416381837	1194.688598632813	-1355.985229492188	13.19959449768067	1134.896728515625	-1288.294555664063	181.6449432373047	1286.83447265625	-1174.087036132813	227.0735778808594	1224.662963867188	-1177.356323242188	266.7453613281251	1310.2158203125	-1164.347045898438	-109.7351150512696	1373.740478515625	-908.458435058594	-21.67359352111817	1231.221435546875	-817.242614746094	16.9843807220459	1251.928955078125	-838.8038330078127	39.23173904418946	1197.704956054688	-825.1503906250002	111.3792495727539	1183.173583984375	-846.0343017578127	80.59933471679689	1119.180541992188	-901.5975341796877	267.6846923828126	1238.624633789063	-1048.627197265625	230.6177978515626	1317.452758789063	-1079.843017578125	-241.4420471191407	874.9075927734377	-1102.6630859375	-236.3946990966797	893.393005371094	-877.550964355469	-384.9195556640626	1021.095458984375	-1003.794250488281	-402.3731384277345	992.3870239257815	-1029.663696289063	-397.6221008300782	995.8760986328127	-971.3214111328127	-296.0721740722657	748.5355834960939	-1182.452758789063	-233.0654602050782	693.1194458007814	-1180.67431640625	-190.2878570556641	715.9661865234376	-1167.932983398438	-235.2901153564454	632.4560546875001	-1180.38427734375	-184.2187042236328	475.5745849609376	-1143.7431640625	-150.2843780517578	480.0679931640626	-1022.704650878906	-203.9220581054688	310.9554443359376	-1029.096923828125	-224.5295715332032	259.9206848144532	-1095.35009765625	-212.9676818847657	258.3409118652344	-1051.346069335938	-259.6456604003907	198.9871520996094	-1015.095153808594	-340.0914611816407	123.534049987793	-1058.802734375	-322.4183044433594	139.7904968261719	-968.9600219726565	-209.5437622070313	61.37416458129884	-988.2553710937502	-208.4375915527344	63.42282867431642	-1032.854125976563	-257.3710632324219	54.06260681152345	-1076.0322265625	-334.1183166503907	739.8304443359376	-775.5747680664065	-295.5439453125001	685.6064453125001	-769.2287597656252	-265.3096008300782	684.5471191406251	-781.0715942382815	-322.7158813476563	605.8753051757814	-761.6741943359376	-324.2209777832032	473.8614501953126	-773.220397949219	-322.4959411621094	441.8235473632814	-901.1676025390627	-425.565887451172	404.3904724121095	-779.0803222656252	-512.9882202148439	465.4546508789064	-749.4689331054689	-508.059783935547	418.9629516601564	-754.3021850585939	-556.1066894531251	398.3071899414064	-783.234802246094	-712.6206665039064	451.6666564941407	-759.1068725585939	-734.5815429687501	499.9875488281251	-822.4394531250002	-779.3767700195315	296.7457885742188	-812.8702392578127	-779.4351196289065	296.2710266113282	-761.8159179687501	-806.155944824219	355.0284118652344	-723.7946166992189	-695.2083740234376	408.5960388183595	-839.484069824219	nan	nan	nan	nan	nan	nan	nan	nan	nan	
975	4.87	-39.3366928100586	1639.138427734375	-1073.099853515625	-216.4821319580079	1584.296997070313	-1086.2158203125	-176.8437194824219	1575.392211914063	-943.089294433594	-223.8786315917969	1425.222778320313	-1035.4716796875	-328.7250061035157	1144.105102539063	-1021.173034667969	-88.75325012207033	1343.9111328125	-1070.06640625	-158.0762634277344	1379.065185546875	-1220.846923828125	-107.0426406860352	1243.366088867188	-1334.593383789063	-61.1594696044922	1266.427978515625	-1331.359252929688	-45.83270263671876	1211.730346679688	-1349.7490234375	26.81920051574708	1197.23681640625	-1356.034301757813	12.97067260742188	1137.289428710938	-1288.107299804688	181.0952758789063	1289.728271484375	-1173.988525390625	227.0259552001954	1227.390258789063	-1177.262573242188	266.1912841796876	1313.142822265625	-1164.134887695313	-110.9278106689453	1375.827392578125	-908.424011230469	-22.49511528015137	1233.508056640625	-817.5255126953127	16.04543685913086	1254.019165039063	-838.4190063476565	38.94075393676759	1199.813598632813	-825.0107421875002	110.8257446289063	1185.589599609375	-845.9764404296877	80.16118621826173	1121.4794921875	-901.8930664062502	267.1290283203126	1241.5087890625	-1048.521240234375	230.2498168945313	1320.303588867188	-1079.78759765625	-241.3670654296876	876.498962402344	-1102.658325195313	-235.8065643310547	895.002380371094	-877.6468505859377	-384.5450439453126	1022.137756347656	-1003.983703613281	-401.8556213378907	993.2788696289065	-1029.855102539063	-397.1645507812501	996.9111328125002	-971.5852661132815	-297.4704589843751	748.4974975585939	-1181.013793945313	-234.0065612792969	693.0266723632814	-1180.490234375	-190.6895751953125	715.9893188476564	-1167.551025390625	-235.3025512695313	633.1586914062501	-1180.350830078125	-184.829330444336	476.082000732422	-1143.76708984375	-150.8147888183594	480.3442687988282	-1022.837219238281	-204.1824493408204	311.2621765136719	-1028.678100585938	-225.2090759277344	260.1930847167969	-1095.42822265625	-213.4762878417969	258.5981140136719	-1051.204345703125	-259.7640991210938	199.0554962158204	-1015.238098144531	-340.8942260742188	124.0726928710938	-1058.720947265625	-322.4588623046876	139.7939910888672	-969.0652465820315	-209.5443420410157	61.42171096801759	-988.3155517578127	-208.4083557128907	63.38708496093751	-1032.928466796875	-257.5154113769532	54.05016326904298	-1076.045776367188	-333.2385559082032	741.3983154296876	-775.872009277344	-294.3758239746094	687.1065673828126	-769.5511474609377	-264.4280700683594	685.9881591796876	-781.218933105469	-321.5793762207032	607.2868652343751	-761.6572875976564	-322.9889526367188	475.134979248047	-773.0588989257815	-321.2264709472657	443.8792724609376	-901.0203857421877	-424.122772216797	405.3522033691407	-779.165466308594	-511.7589111328126	466.4721984863282	-749.4041137695314	-506.3295288085939	419.9733886718751	-754.5548095703126	-554.4046020507814	398.9537963867189	-783.3455810546877	-711.2029418945314	451.984100341797	-758.5963745117189	-733.1543579101564	500.3632202148439	-822.659118652344	-777.8234863281252	296.3426513671876	-812.5938110351565	-777.9997558593752	296.6646423339844	-763.3577880859376	-804.584411621094	355.3934936523438	-723.6874389648439	-693.7943725585939	408.9819946289064	-839.1274414062502	nan	nan	nan	nan	nan	nan	nan	nan	nan	
